# Blender v2.82 (sub 7) OBJ File: 'Predator.blend'
# www.blender.org
mtllib Arm_Upper_Right.mtl
o Arm_Upper.001_Cube.001
v -4.937303 29.717907 0.592304
v -5.230750 29.607782 -0.012137
v -4.868000 29.921764 1.187430
v -5.078832 29.415550 0.503498
v -5.270634 29.277481 -0.222122
v -5.088110 29.854572 1.312168
v -5.160208 28.859270 0.409542
v -5.257648 29.099316 -0.265552
v -5.626168 29.650967 1.603051
v -5.419119 28.467194 0.367470
v -5.228040 28.789398 -0.428438
v -5.919350 28.684525 1.205134
v -5.514069 28.259079 0.260196
v -5.180674 28.117792 -0.594816
v -5.913541 28.427986 0.872493
v -5.145919 27.043743 0.547610
v -4.979924 27.158752 -0.743847
v -5.971653 27.293671 1.389234
v -5.146122 26.307192 0.585316
v -5.031925 26.372616 -0.809564
v -6.021759 26.206852 1.324316
v -5.326919 25.292072 0.463966
v -5.436878 24.348404 0.371294
v -5.234195 25.490284 -0.706612
v -6.096612 25.357609 1.096681
v -6.124599 24.149168 0.916858
v -6.859057 25.385347 1.064132
v -6.912238 26.245903 1.379165
v -6.846210 24.154457 0.947447
v -7.371575 25.373619 0.559255
v -7.553967 26.392872 0.805429
v -7.340789 24.349201 0.466507
v -7.694976 25.491514 -0.053468
v -7.985674 26.559868 0.020222
v -7.556378 24.490940 -0.160174
v -7.639188 25.513214 -0.961020
v -7.593646 24.536495 -0.911622
v -8.048535 26.612846 -0.880393
v -7.213289 25.530684 -1.500966
v -7.282873 26.588684 -1.693893
v -7.105650 24.535439 -1.443164
v -6.484344 25.544554 -1.675907
v -6.452976 24.487995 -1.695811
v -6.504786 26.538235 -1.998295
v -5.726951 25.519079 -1.646525
v -5.801779 24.512484 -1.583873
v -5.629224 26.461660 -1.863025
v -5.592257 27.234211 -1.887725
v -6.504734 27.351231 -1.989700
v -5.654769 27.997852 -1.713890
v -6.564509 29.254871 -1.757543
v -5.641814 28.980247 -1.581007
v -6.502826 29.518311 -1.637899
v -5.598128 29.608961 -1.509888
v -6.338270 30.076984 -1.789063
v -5.566014 29.969484 -1.472746
v -6.139964 30.471066 -1.733980
v -5.532127 30.069332 -1.431342
v -5.904819 30.783466 -1.578199
v -6.274819 31.512432 -1.330445
v -6.114542 32.127098 -0.671305
v -6.735368 31.210367 -1.464520
v -7.141738 31.619213 -0.733715
v -7.156436 30.470530 -1.409292
v -7.658763 30.526606 -0.810144
v -7.344776 29.398438 -1.349978
v -7.758668 29.130075 -0.787714
v -7.338495 28.682022 -1.339272
v -7.639658 28.385771 -0.811440
v -7.365764 27.460873 -1.647244
v -7.976906 27.565561 -0.844566
v -7.895961 27.539005 0.049600
v -7.474758 27.493202 0.857037
v -7.551188 28.348671 0.007738
v -7.240483 28.485535 0.735445
v -7.637064 29.103762 0.068756
v -7.173348 29.371979 0.891601
v -7.643323 30.466766 0.131018
v -7.021179 30.397356 1.365413
v -7.155852 31.579643 0.233980
v -6.605195 31.055752 1.501828
v -6.064680 32.201706 0.493571
v -5.860982 31.548655 1.329453
v -4.931939 30.496616 1.487395
v -5.740152 30.322205 1.820996
v -6.247810 30.017748 1.698349
v -6.350436 29.139305 1.292826
v -6.691930 28.760563 0.986033
v -6.904809 27.456543 1.430919
v -5.835001 23.341293 -0.958149
v -5.425206 24.489378 -0.681665
v -5.816140 23.425272 -0.300846
v -5.928133 23.382034 0.070124
v -6.251025 23.192146 0.275828
v -6.728391 23.178314 0.389227
v -7.150169 23.313915 0.191685
v -7.293782 23.556713 -0.219605
v -7.332582 23.587839 -0.676629
v -6.978095 23.524677 -1.149141
v -6.386291 23.398846 -1.493662
vt 0.372389 0.611143
vt 0.387307 0.624120
vt 0.389560 0.613651
vt 0.398275 0.640444
vt 0.405665 0.637358
vt 0.371027 0.599815
vt 0.393716 0.596515
vt 0.422686 0.629302
vt 0.399490 0.582707
vt 0.371875 0.584649
vt 0.426968 0.597641
vt 0.399280 0.573909
vt 0.424819 0.583671
vt 0.371065 0.563512
vt 0.407164 0.535654
vt 0.436536 0.548428
vt 0.412626 0.516261
vt 0.372320 0.506617
vt 0.442375 0.521102
vt 0.420914 0.488185
vt 0.384973 0.479759
vt 0.447839 0.498167
vt 0.455725 0.464411
vt 0.430416 0.462073
vt 0.400195 0.449319
vt 0.463502 0.526530
vt 0.468897 0.503291
vt 0.475292 0.468738
vt 0.483392 0.532613
vt 0.489083 0.505403
vt 0.494430 0.475981
vt 0.503963 0.539495
vt 0.507909 0.511346
vt 0.513431 0.482184
vt 0.524270 0.543558
vt 0.533041 0.515007
vt 0.534998 0.486847
vt 0.552444 0.517103
vt 0.555702 0.488335
vt 0.551047 0.545485
vt 0.571989 0.546883
vt 0.574037 0.518581
vt 0.575959 0.487625
vt 0.596783 0.519163
vt 0.595000 0.488983
vt 0.595038 0.546880
vt 0.629566 0.516013
vt 0.624594 0.483344
vt 0.630535 0.545059
vt 0.630960 0.570373
vt 0.593355 0.567466
vt 0.590867 0.589354
vt 0.626313 0.601350
vt 0.569535 0.567567
vt 0.586358 0.618976
vt 0.625342 0.623424
vt 0.557310 0.619202
vt 0.582620 0.639040
vt 0.627252 0.634800
vt 0.556169 0.627947
vt 0.627006 0.640786
vt 0.580460 0.651139
vt 0.555605 0.645496
vt 0.580918 0.655327
vt 0.630960 0.653112
vt 0.555917 0.658391
vt 0.557879 0.671660
vt 0.530869 0.667909
vt 0.532282 0.684394
vt 0.509551 0.669013
vt 0.530561 0.646267
vt 0.513186 0.642269
vt 0.533119 0.618320
vt 0.516082 0.608838
vt 0.535786 0.599067
vt 0.519578 0.588764
vt 0.545712 0.566886
vt 0.496225 0.585738
vt 0.521105 0.565697
vt 0.499931 0.562864
vt 0.477923 0.559511
vt 0.493701 0.606290
vt 0.472590 0.587717
vt 0.492248 0.639441
vt 0.468032 0.613705
vt 0.488267 0.666675
vt 0.460595 0.641167
vt 0.444711 0.679352
vt 0.473912 0.697169
vt 0.508404 0.699010
vt 0.454640 0.658315
vt 0.429614 0.646355
vt 0.408776 0.658375
vt 0.439887 0.636166
vt 0.441383 0.610130
vt 0.452276 0.594991
vt 0.458833 0.555557
vt 0.624860 0.444670
vt 0.603800 0.448679
vt 0.578848 0.453026
vt 0.445276 0.429840
vt 0.431315 0.424638
vt 0.462059 0.428001
vt 0.481211 0.431742
vt 0.499679 0.439958
vt 0.516870 0.450020
vt 0.534057 0.454521
vt 0.555290 0.454840
vt 0.372314 0.594706
vt 0.368855 0.532345
vn 0.9653 -0.0145 -0.2608
vn 0.8651 -0.4960 0.0739
vn 0.9534 -0.2975 0.0497
vn 0.5054 -0.6872 0.5217
vn 0.5417 -0.5620 0.6250
vn 0.9779 0.0432 -0.2044
vn 0.9170 -0.3440 0.2019
vn 0.3291 -0.4103 0.8505
vn 0.7757 -0.5426 0.3222
vn 0.9956 0.0263 -0.0901
vn 0.1885 -0.6097 0.7698
vn 0.9102 -0.0470 0.4114
vn 0.5245 -0.2809 0.8037
vn 0.9836 0.1700 -0.0602
vn 0.8864 0.1322 0.4436
vn 0.4248 0.1571 0.8915
vn 0.8827 -0.0972 0.4598
vn 0.9661 -0.1317 -0.2221
vn 0.3661 -0.1752 0.9139
vn 0.8784 -0.1856 0.4403
vn 0.9603 -0.2011 -0.1935
vn 0.3154 -0.1990 0.9278
vn 0.3660 -0.3463 0.8638
vn 0.8721 -0.2923 0.3924
vn 0.9559 -0.2344 -0.1767
vn -0.3373 -0.1938 0.9212
vn -0.3884 -0.2123 0.8967
vn -0.3576 -0.2883 0.8882
vn -0.7940 -0.1325 0.5932
vn -0.8065 -0.1894 0.5600
vn -0.8528 -0.1746 0.4921
vn -0.9603 -0.0922 0.2633
vn -0.9520 -0.2192 0.2135
vn -0.9653 -0.1918 0.1772
vn -0.9437 -0.1036 -0.3142
vn -0.9017 -0.1805 -0.3928
vn -0.9171 -0.1891 -0.3510
vn -0.5393 -0.1475 -0.8291
vn -0.5460 -0.1738 -0.8195
vn -0.5452 -0.1182 -0.8299
vn -0.1237 -0.1515 -0.9807
vn -0.1073 -0.1506 -0.9827
vn -0.1184 -0.1083 -0.9870
vn 0.5238 -0.1786 -0.8329
vn 0.5955 -0.1686 -0.7854
vn 0.5417 -0.1540 -0.8263
vn 0.9819 0.0773 -0.1727
vn 0.5663 0.0876 -0.8195
vn 0.6087 0.1641 -0.7762
vn -0.1199 0.0965 -0.9881
vn 0.6429 0.0939 -0.7601
vn -0.1237 0.2540 -0.9592
vn 0.6890 -0.0099 -0.7247
vn 0.9796 0.1378 -0.1463
vn -0.1051 0.1103 -0.9883
vn 0.7296 -0.0131 -0.6837
vn -0.0691 -0.0294 -0.9972
vn 0.7566 0.0146 -0.6537
vn 0.1297 0.1650 -0.9777
vn 0.2302 0.2748 -0.9335
vn -0.3587 0.4398 -0.8233
vn -0.1904 0.6178 -0.7629
vn -0.6705 0.6793 -0.2984
vn -0.5746 0.1705 -0.8005
vn -0.9149 0.2549 -0.3128
vn -0.6307 0.0410 -0.7749
vn -0.9700 -0.0434 -0.2391
vn -0.6965 0.0461 -0.7160
vn -0.9662 0.1091 -0.2335
vn -0.5873 0.1337 -0.7982
vn -0.9554 0.1269 0.2664
vn -0.9356 0.2329 -0.2652
vn -0.9316 0.2315 0.2803
vn -0.7978 0.1599 0.5813
vn -0.9486 -0.0627 0.3102
vn -0.7554 0.1268 0.6429
vn -0.9496 0.1872 0.2516
vn -0.7130 -0.1453 0.6859
vn -0.7247 0.6421 0.2499
vn -0.6995 0.0426 0.7133
vn -0.2071 0.5947 0.7768
vn -0.5255 0.7804 0.3388
vn -0.4353 0.8655 -0.2477
vn -0.4391 0.4428 0.7817
vn 0.1245 0.0234 0.9919
vn 0.4084 -0.0454 0.9116
vn -0.2853 -0.2010 0.9371
vn -0.3201 -0.3538 0.8788
vn -0.3030 -0.0893 0.9488
vn -0.3126 0.1682 0.9348
vn 0.9141 -0.4001 0.0656
vn 0.8637 -0.3496 -0.3629
vn 0.0674 -0.3138 -0.9471
vn 0.7472 -0.5019 0.4356
vn 0.4301 -0.5409 0.7227
vn -0.1483 -0.5415 0.8275
vn -0.7675 -0.3634 0.5280
vn -0.9542 -0.2575 0.1520
vn -0.9190 -0.3189 -0.2317
vn -0.6178 -0.2783 -0.7353
usemtl Predator_Body
s 1
f 2/1/1 1/2/2 4/3/3
f 1/2/2 3/4/4 6/5/5
f 5/6/6 4/3/3 7/7/7
f 4/3/3 6/5/5 9/8/8
f 7/7/7 10/9/9 11/10/10
f 7/7/7 9/8/8 12/11/11
f 11/10/10 10/9/9 13/12/12
f 10/9/9 12/11/11 15/13/13
f 14/14/14 13/12/12 16/15/15
f 13/12/12 15/13/13 18/16/16
f 16/15/15 19/17/17 20/18/18
f 16/15/15 18/16/16 21/19/19
f 19/17/17 22/20/20 24/21/21
f 19/17/17 21/19/19 25/22/22
f 25/22/22 26/23/23 23/24/24
f 22/20/20 23/24/24 91/25/25
f 21/19/19 28/26/26 27/27/27
f 25/22/22 27/27/27 29/28/28
f 31/29/29 30/30/30 27/27/27
f 27/27/27 30/30/30 32/31/31
f 31/29/29 34/32/32 33/33/33
f 30/30/30 33/33/33 35/34/34
f 38/35/35 36/36/36 33/33/33
f 33/33/33 36/36/36 37/37/37
f 36/36/36 39/38/38 41/39/39
f 40/40/40 39/38/38 36/36/36
f 40/40/40 44/41/41 42/42/42
f 42/42/42 43/43/43 41/39/39
f 42/42/42 45/44/44 46/45/45
f 47/46/46 45/44/44 42/42/42
f 24/47/21 91/48/25 46/45/45
f 20/49/18 24/47/21 45/44/44
f 17/50/47 20/49/18 47/46/46
f 48/51/48 47/46/46 44/41/41
f 50/52/49 14/53/14 17/50/47
f 50/52/49 48/51/48 49/54/50
f 52/55/51 11/56/10 14/53/14
f 52/55/51 50/52/49 51/57/52
f 54/58/53 8/59/54 11/56/10
f 54/58/53 52/55/51 53/60/55
f 5/61/6 8/59/54 54/58/53
f 56/62/56 54/58/53 55/63/57
f 58/64/58 2/65/1 5/61/6
f 58/64/58 56/62/56 57/66/59
f 59/67/60 57/66/59 62/68/61
f 60/69/62 62/68/61 63/70/63
f 57/66/59 55/63/57 64/71/64
f 63/70/63 62/68/61 64/71/64
f 64/71/64 55/63/57 53/60/55
f 65/72/65 64/71/64 66/73/66
f 66/73/66 53/60/55 51/57/52
f 67/74/67 66/73/66 68/75/68
f 68/75/68 51/57/52 49/54/50
f 69/76/69 68/75/68 70/77/70
f 49/54/50 44/41/41 40/40/40
f 70/77/70 40/40/40 38/35/35
f 74/78/71 69/76/69 71/79/72
f 72/80/73 71/79/72 38/35/35
f 74/78/71 72/80/73 73/81/74
f 73/81/74 72/80/73 34/32/32
f 76/82/75 74/78/71 75/83/76
f 67/74/67 69/76/69 74/78/71
f 78/84/77 76/82/75 77/85/78
f 78/84/77 65/72/65 67/74/67
f 80/86/79 78/84/77 79/87/80
f 63/70/63 65/72/65 78/84/77
f 83/88/81 82/89/82 80/86/79
f 61/90/83 63/70/63 80/86/79
f 83/88/81 81/91/84 85/92/85
f 84/93/86 85/92/85 6/5/5
f 81/91/84 79/87/80 86/94/87
f 85/92/85 86/94/87 9/8/8
f 86/94/87 79/87/80 77/85/78
f 9/8/8 86/94/87 87/95/88
f 77/85/78 75/83/76 88/96/89
f 12/11/11 87/95/88 88/96/89
f 75/83/76 73/81/74 89/97/90
f 15/13/13 88/96/89 89/97/90
f 89/97/90 73/81/74 31/29/29
f 18/16/16 89/97/90 28/26/26
f 91/48/25 92/98/91 90/99/92
f 46/45/45 90/99/92 100/100/93
f 23/24/24 93/101/94 92/102/91
f 26/23/23 94/103/95 93/101/94
f 26/23/23 29/28/28 95/104/96
f 29/28/28 32/31/31 96/105/97
f 32/31/31 35/34/34 97/106/98
f 35/34/34 37/37/37 98/107/99
f 37/37/37 41/39/39 99/108/100
f 43/43/43 100/100/93 99/108/100
f 2/1/1 4/3/3 5/6/6
f 1/2/2 6/5/5 4/3/3
f 5/6/6 7/7/7 8/109/54
f 4/3/3 9/8/8 7/7/7
f 7/7/7 11/10/10 8/109/54
f 7/7/7 12/11/11 10/9/9
f 11/10/10 13/12/12 14/14/14
f 10/9/9 15/13/13 13/12/12
f 14/14/14 16/15/15 17/110/47
f 13/12/12 18/16/16 16/15/15
f 16/15/15 20/18/18 17/110/47
f 16/15/15 21/19/19 19/17/17
f 19/17/17 24/21/21 20/18/18
f 19/17/17 25/22/22 22/20/20
f 25/22/22 23/24/24 22/20/20
f 22/20/20 91/25/25 24/21/21
f 21/19/19 27/27/27 25/22/22
f 25/22/22 29/28/28 26/23/23
f 31/29/29 27/27/27 28/26/26
f 27/27/27 32/31/31 29/28/28
f 31/29/29 33/33/33 30/30/30
f 30/30/30 35/34/34 32/31/31
f 38/35/35 33/33/33 34/32/32
f 33/33/33 37/37/37 35/34/34
f 36/36/36 41/39/39 37/37/37
f 40/40/40 36/36/36 38/35/35
f 40/40/40 42/42/42 39/38/38
f 42/42/42 41/39/39 39/38/38
f 42/42/42 46/45/45 43/43/43
f 47/46/46 42/42/42 44/41/41
f 24/47/21 46/45/45 45/44/44
f 20/49/18 45/44/44 47/46/46
f 17/50/47 47/46/46 48/51/48
f 48/51/48 44/41/41 49/54/50
f 50/52/49 17/50/47 48/51/48
f 50/52/49 49/54/50 51/57/52
f 52/55/51 14/53/14 50/52/49
f 52/55/51 51/57/52 53/60/55
f 54/58/53 11/56/10 52/55/51
f 54/58/53 53/60/55 55/63/57
f 5/61/6 54/58/53 56/62/56
f 56/62/56 55/63/57 57/66/59
f 58/64/58 5/61/6 56/62/56
f 58/64/58 57/66/59 59/67/60
f 59/67/60 62/68/61 60/69/62
f 60/69/62 63/70/63 61/90/83
f 57/66/59 64/71/64 62/68/61
f 63/70/63 64/71/64 65/72/65
f 64/71/64 53/60/55 66/73/66
f 65/72/65 66/73/66 67/74/67
f 66/73/66 51/57/52 68/75/68
f 67/74/67 68/75/68 69/76/69
f 68/75/68 49/54/50 70/77/70
f 69/76/69 70/77/70 71/79/72
f 49/54/50 40/40/40 70/77/70
f 70/77/70 38/35/35 71/79/72
f 74/78/71 71/79/72 72/80/73
f 72/80/73 38/35/35 34/32/32
f 74/78/71 73/81/74 75/83/76
f 73/81/74 34/32/32 31/29/29
f 76/82/75 75/83/76 77/85/78
f 67/74/67 74/78/71 76/82/75
f 78/84/77 77/85/78 79/87/80
f 78/84/77 67/74/67 76/82/75
f 80/86/79 79/87/80 81/91/84
f 63/70/63 78/84/77 80/86/79
f 83/88/81 80/86/79 81/91/84
f 61/90/83 80/86/79 82/89/82
f 83/88/81 85/92/85 84/93/86
f 84/93/86 6/5/5 3/4/4
f 81/91/84 86/94/87 85/92/85
f 85/92/85 9/8/8 6/5/5
f 86/94/87 77/85/78 87/95/88
f 9/8/8 87/95/88 12/11/11
f 77/85/78 88/96/89 87/95/88
f 12/11/11 88/96/89 15/13/13
f 75/83/76 89/97/90 88/96/89
f 15/13/13 89/97/90 18/16/16
f 89/97/90 31/29/29 28/26/26
f 18/16/16 28/26/26 21/19/19
f 91/48/25 90/99/92 46/45/45
f 46/45/45 100/100/93 43/43/43
f 23/24/24 92/102/91 91/25/25
f 26/23/23 93/101/94 23/24/24
f 26/23/23 95/104/96 94/103/95
f 29/28/28 96/105/97 95/104/96
f 32/31/31 97/106/98 96/105/97
f 35/34/34 98/107/99 97/106/98
f 37/37/37 99/108/100 98/107/99
f 43/43/43 99/108/100 41/39/39
