# Blender v2.82 (sub 7) OBJ File: 'Predator.blend'
# www.blender.org
mtllib Armor_Leg_Right.mtl
o Armor_Leg.001_Cube.003
v -2.561869 2.469402 0.093107
v -2.960231 2.472187 0.820381
v -1.712002 5.394653 0.143685
v -2.364715 2.418621 -0.573875
v -2.518898 2.237980 0.240367
v -2.943506 2.240952 1.015557
v -1.613039 5.355957 0.294277
v -2.308755 2.183853 -0.470558
v -1.543937 7.429607 0.292508
v -2.272882 7.429607 1.234318
v -1.269368 7.424294 -0.386409
v -1.580091 8.947388 0.360396
v -2.248120 8.947388 1.170353
v -1.371128 8.942076 -0.350995
v -1.681090 8.764095 0.205717
v -2.307828 8.764095 0.965609
v -1.647171 7.340128 0.142025
v -1.485044 8.759111 -0.461703
v -1.389574 7.335144 -0.494928
v -1.491991 5.414663 -0.490704
v -1.372432 5.374384 -0.396435
v -2.331059 7.340128 1.025620
v -3.195131 7.340128 1.363123
v -2.505001 5.410538 1.067360
v -3.259023 5.377293 1.310740
v -4.198772 5.405573 0.904022
v -3.346406 2.492676 1.021030
v -3.875675 2.486206 0.679357
v -3.355123 2.262791 1.229425
v -3.919263 2.255890 0.865242
v -4.221660 2.255890 0.214555
v -4.248649 2.133923 -0.420402
v -4.905408 5.335548 0.225985
v -4.159381 2.486206 0.068891
v -4.184701 2.371777 -0.526819
v -4.800866 5.375505 0.079614
v -4.827684 5.404863 -0.822743
v -4.729040 7.241055 0.170140
v -4.151822 7.340128 1.025620
v -4.850746 7.299889 -0.749979
v -4.471901 8.764095 0.205717
v -4.050048 8.743984 0.935318
v -4.471901 8.764095 -0.696120
v -4.554770 8.947388 0.360396
v -4.105124 8.925953 1.138066
v -4.554770 8.947388 -0.600857
v -4.828850 7.324003 0.322475
v -4.213603 7.429607 1.234317
v -4.958574 7.386715 -0.658264
v -3.193881 7.429607 1.594056
v -3.067430 8.947388 1.435110
v -3.076496 8.764095 1.214001
v -4.933993 5.366840 -0.735823
v -2.518898 2.237980 0.240367
v -2.943506 2.240952 1.015557
v -1.613039 5.355957 0.294277
v -2.666131 2.991093 1.072638
v -2.847424 2.967197 1.454083
v -2.037714 5.427824 1.231540
v -2.458284 5.372889 1.642518
v -2.032554 6.046255 1.216154
v -2.286633 6.693310 1.579811
v -1.543937 7.429607 0.292508
v -2.272882 7.429607 1.234318
v -3.355123 2.262791 1.229425
v -3.919263 2.255890 0.865242
v -3.343508 2.998627 1.657883
v -3.261983 5.337454 1.901933
v -3.991315 2.986839 1.287246
v -4.263646 5.367599 1.468419
v -4.092240 2.995693 0.975514
v -4.513754 5.358799 1.195563
v -4.221660 2.255890 0.214555
v -4.905408 5.335548 0.225985
v -4.828850 7.324003 0.322475
v -4.213603 7.429607 1.234317
v -4.476388 5.988808 1.215265
v -4.189210 6.692442 1.612805
v -3.193275 6.693205 1.938615
v -3.193881 7.429607 1.594056
vt 0.100394 0.467877
vt 0.063548 0.464670
vt 0.067848 0.475581
vt 0.684377 0.370801
vt 0.688413 0.402846
vt 0.800713 0.388103
vt 0.677672 0.344568
vt 0.797654 0.342376
vt 0.037792 0.469725
vt 0.042455 0.470712
vt 0.039002 0.594180
vt 0.084360 0.673691
vt 0.037442 0.674844
vt 0.040918 0.734418
vt 0.008683 0.675270
vt 0.014273 0.733261
vt 0.011215 0.592122
vt 0.080433 0.747279
vt 0.083344 0.735488
vt 0.035818 0.744102
vt 0.928541 0.340922
vt 0.872458 0.338058
vt 0.872971 0.380979
vt 0.928232 0.313254
vt 0.008833 0.733826
vt 0.795624 0.316602
vt 0.001754 0.671833
vt 0.004985 0.591921
vt 0.872345 0.415751
vt 0.927543 0.412562
vt 0.799670 0.417275
vt 0.689786 0.420211
vt 0.799770 0.455102
vt 0.871677 0.453466
vt 0.688460 0.444980
vt 0.122860 0.468585
vt 0.103864 0.480881
vt 0.123997 0.482837
vt 0.152642 0.475624
vt 0.154385 0.461683
vt 0.184706 0.467137
vt 0.187244 0.454324
vt 0.207511 0.456701
vt 0.214368 0.589721
vt 0.252575 0.585711
vt 0.685584 0.471295
vt 0.676979 0.493429
vt 0.793579 0.527262
vt 0.796404 0.492898
vt 0.866811 0.492248
vt 0.926685 0.486904
vt 0.868601 0.528318
vt 0.928541 0.522738
vt 0.169649 0.746007
vt 0.210337 0.744905
vt 0.204504 0.734954
vt 0.248537 0.737346
vt 0.242807 0.736673
vt 0.167734 0.671992
vt 0.166186 0.734177
vt 0.211778 0.668126
vt 0.119547 0.736187
vt 0.124129 0.672235
vt 0.119948 0.748666
vt 0.925987 0.453035
vt 0.258636 0.668657
vt 0.258636 0.585846
vt 0.251997 0.671422
vt 0.211311 0.455724
vt 0.093114 0.510198
vt 0.107283 0.512668
vt 0.103864 0.480881
vt 0.067848 0.475581
vt 0.039002 0.594180
vt 0.076237 0.599769
vt 0.096377 0.598204
vt 0.075662 0.621306
vt 0.037442 0.674844
vt 0.084360 0.673691
vt 0.125130 0.514416
vt 0.123997 0.482837
vt 0.150961 0.509414
vt 0.152642 0.475624
vt 0.125087 0.596585
vt 0.161972 0.505389
vt 0.162817 0.595787
vt 0.184706 0.467137
vt 0.175523 0.594699
vt 0.214368 0.589721
vt 0.159256 0.642166
vt 0.167734 0.671992
vt 0.211778 0.668126
vt 0.175304 0.616842
vt 0.123860 0.642568
vt 0.124129 0.672235
vt 0.091038 0.643879
vt 0.928354 0.380105
vt 0.871491 0.311075
vn -0.6589 -0.5125 -0.5507
vn -0.8754 -0.3645 -0.3174
vn -0.8446 -0.3901 -0.3666
vn -0.8828 0.2294 -0.4099
vn -0.8635 0.1736 -0.4736
vn -0.5605 0.1102 -0.8208
vn -0.9163 0.2718 -0.2939
vn -0.8635 0.1478 -0.4821
vn -0.9132 -0.3256 -0.2451
vn 0.9341 -0.1590 0.3197
vn 0.9171 -0.2715 0.2918
vn 0.9162 -0.2719 0.2943
vn 0.7834 0.0003 0.6215
vn 0.8965 -0.0035 0.4431
vn 0.8833 0.0075 0.4687
vn 0.9271 0.0017 0.3749
vn 0.9511 0.0225 0.3082
vn 0.9330 -0.1506 0.3270
vn -0.4093 0.7359 -0.5394
vn -0.3548 0.7456 -0.5640
vn -0.6404 0.6699 -0.3756
vn -0.6866 0.6512 -0.3233
vn -0.7589 0.6102 -0.2275
vn -0.8833 -0.0075 -0.4687
vn -0.8734 0.0091 -0.4869
vn -0.5921 -0.0023 -0.8059
vn -0.9511 -0.0225 -0.3082
vn 0.6436 0.0609 -0.7630
vn 0.6573 0.0303 -0.7530
vn -0.9337 0.1500 -0.3253
vn 0.6681 0.0006 -0.7440
vn 0.5996 -0.0958 -0.7946
vn 0.6457 -0.1721 -0.7439
vn 0.5986 -0.0869 -0.7963
vn -0.3567 -0.0225 -0.9339
vn -0.3275 -0.0466 -0.9437
vn -0.3164 0.0818 -0.9451
vn -0.4313 0.1069 -0.8959
vn -0.4543 0.1026 -0.8849
vn 0.3980 0.0723 -0.9146
vn 0.3979 0.0802 -0.9139
vn 0.3429 -0.0284 -0.9389
vn 0.5405 0.0678 -0.8386
vn 0.5113 0.0779 -0.8559
vn -0.3906 -0.6101 -0.6894
vn -0.5534 -0.5602 -0.6163
vn 0.4333 -0.6143 -0.6595
vn 0.5888 -0.5722 -0.5709
vn 0.6802 -0.5340 -0.5021
vn 0.8909 -0.3891 -0.2343
vn 0.9819 -0.1471 -0.1195
vn 0.9666 -0.2562 0.0081
vn -0.9768 -0.2022 0.0701
vn -0.9955 -0.0913 0.0266
vn -0.9947 -0.0923 0.0459
vn 0.8147 0.0845 -0.5737
vn 0.8990 0.1316 -0.4178
vn 0.8799 0.1416 -0.4535
vn 0.9991 -0.0184 -0.0389
vn 0.9947 0.0923 -0.0459
vn 0.8029 0.0879 -0.5896
vn 0.8271 -0.0507 -0.5598
vn 0.9893 -0.1075 -0.0987
vn 0.9955 0.0913 -0.0266
vn 0.8361 -0.0563 -0.5456
vn 0.8486 -0.1075 -0.5180
vn 0.9838 -0.1148 -0.1375
vn 0.9799 -0.1933 -0.0490
vn 0.6821 0.6266 -0.3771
vn 0.8541 0.5018 -0.1371
vn 0.7766 0.5727 -0.2626
vn 0.9112 0.4120 0.0000
vn -0.8395 0.1169 0.5307
vn -0.8607 0.0946 0.5003
vn -0.8486 0.1075 0.5180
vn -0.9893 0.1075 0.0987
vn -0.9860 0.1665 0.0000
vn -0.9799 0.1933 0.0490
vn 0.3450 0.0567 0.9369
vn 0.3073 0.0351 0.9510
vn 0.3275 0.0466 0.9437
vn -0.3096 0.0996 0.9456
vn -0.2755 0.1228 0.9534
vn -0.2974 0.1080 0.9486
vn -0.0151 0.7701 -0.6378
vn -0.0211 0.7701 -0.6375
vn 0.1657 0.7559 -0.6334
vn 0.3214 -0.0442 -0.9459
vn 0.2974 -0.1080 -0.9486
vn -0.6097 0.0762 -0.7890
vn -0.6148 -0.0755 -0.7850
vn -0.6070 -0.1040 -0.7879
vn -0.5535 0.1732 -0.8147
vn -0.5839 0.1226 -0.8025
vn -0.5765 -0.1995 -0.7924
vn 0.8665 -0.2718 0.4186
vn 0.8800 -0.2522 0.4024
vn 0.8330 -0.3412 0.4356
vn 0.8562 -0.2986 0.4217
vn 0.8964 -0.1384 0.4210
vn 0.8159 -0.1103 0.5676
vn 0.5376 -0.1051 0.8366
vn 0.8374 0.0029 0.5465
vn 0.8384 0.0652 0.5411
vn 0.8237 0.1359 0.5505
vn 0.3499 -0.3137 0.8827
vn 0.3491 -0.2827 0.8934
vn 0.3511 -0.5046 0.7887
vn -0.4696 -0.2854 0.8355
vn -0.4732 -0.4750 0.7420
vn -0.4576 -0.4627 0.7593
vn 0.3139 -0.0833 0.9458
vn -0.4787 -0.2409 0.8443
vn -0.3889 -0.0772 0.9180
vn -0.9162 -0.2086 0.3422
vn -0.9365 -0.1847 0.2980
vn -0.5998 -0.0931 0.7947
vn -0.8953 -0.2336 0.3794
vn -0.8848 -0.2641 0.3840
vn -0.8442 -0.0808 0.5299
vn -0.9218 -0.0875 0.3777
vn -0.5903 0.1712 0.7888
vn -0.8171 0.2417 0.5234
vn -0.8817 0.1070 0.4594
vn -0.8626 0.0227 0.5054
vn -0.3050 0.1973 0.9317
vn -0.2913 0.4152 0.8618
vn 0.6545 0.1752 0.7355
vn 0.3504 0.1818 0.9188
vn 0.3342 0.3952 0.8556
vn 0.3360 0.3975 0.8539
vn 0.7714 0.0142 0.6362
vn -0.7714 -0.0142 -0.6362
vn -0.9271 -0.0018 -0.3749
vn 0.6470 -0.1726 -0.7427
vn -0.3073 -0.0351 -0.9510
vn -0.9767 -0.1993 0.0798
vn 0.8607 -0.0946 -0.5003
vn 0.9860 -0.1665 0.0000
vn 0.6820 0.6266 -0.3771
vn -0.8290 0.1272 0.5446
vn -0.9838 0.1148 0.1375
vn 0.3630 0.0671 0.9294
vn -0.3315 0.0845 0.9397
vn 0.2755 -0.1228 -0.9534
vn 0.3735 -0.5152 0.7714
vn -0.3007 0.4277 0.8524
usemtl Predator_Armor_01
s 1
f 2/1/1 1/2/2 5/3/3
f 1/4/4 2/5/5 24/6/6
f 4/7/7 1/4/4 3/8/8
f 1/2/2 4/9/9 8/10/9
f 7/11/10 5/3/11 8/10/12
f 10/12/13 9/13/14 12/14/15
f 9/13/14 11/15/16 14/16/17
f 9/13/14 7/11/10 21/17/18
f 16/18/19 13/19/20 12/14/21
f 15/20/22 12/14/21 14/16/23
f 15/21/24 17/22/25 22/23/26
f 17/22/25 15/21/24 18/24/27
f 18/25/28 14/16/28 11/15/29
f 20/26/30 3/8/8 17/22/25
f 19/27/31 11/15/29 21/17/32
f 4/9/33 20/28/34 21/17/32
f 3/8/8 24/6/6 22/23/26
f 22/23/26 23/29/35 52/30/36
f 24/6/6 25/31/37 23/29/35
f 2/5/38 27/32/39 25/31/37
f 25/31/40 26/33/41 39/34/42
f 25/31/40 27/32/43 28/35/44
f 27/36/45 2/1/1 6/37/46
f 27/36/47 29/38/47 30/39/48
f 28/40/49 30/39/48 31/41/50
f 34/42/51 31/41/50 32/43/52
f 31/41/53 33/44/54 53/45/55
f 26/33/56 28/35/57 34/46/58
f 34/46/51 35/47/59 37/48/60
f 26/33/56 36/49/61 38/50/62
f 38/50/63 36/49/64 37/48/60
f 39/34/65 38/50/62 41/51/66
f 38/50/63 40/52/67 43/53/68
f 42/54/69 41/55/70 44/56/71
f 41/55/70 43/57/72 46/58/72
f 48/59/73 45/60/74 44/56/75
f 47/61/76 44/56/77 46/58/78
f 53/45/55 33/44/54 47/61/76
f 10/12/79 13/19/80 51/62/81
f 50/63/82 51/62/83 45/60/84
f 52/64/85 51/62/86 13/19/20
f 52/64/85 42/54/87 45/60/87
f 23/29/88 39/34/42 42/65/89
f 40/66/90 37/67/91 53/45/92
f 43/57/93 40/66/90 49/68/94
f 35/69/95 32/43/95 53/45/92
f 57/70/96 58/71/97 55/72/98
f 57/70/96 54/73/99 56/74/100
f 57/70/96 59/75/101 60/76/102
f 60/76/102 59/75/101 61/77/103
f 61/77/103 59/75/101 56/74/100
f 61/77/103 63/78/104 64/79/105
f 58/71/106 67/80/107 65/81/108
f 69/82/109 66/83/110 65/81/111
f 58/71/106 60/76/102 68/84/112
f 69/82/109 67/80/113 68/84/114
f 71/85/115 69/82/116 70/86/117
f 71/85/115 73/87/118 66/83/119
f 71/85/115 72/88/120 74/89/121
f 78/90/122 76/91/123 75/92/124
f 77/93/125 75/92/124 74/89/121
f 70/86/117 78/90/122 77/93/125
f 68/84/114 79/94/126 78/90/122
f 78/90/122 79/94/126 80/95/127
f 60/76/102 62/96/128 79/94/129
f 62/96/128 64/79/130 80/95/131
f 2/1/1 5/3/3 6/37/46
f 1/4/4 24/6/6 3/8/8
f 4/7/7 3/8/8 20/26/30
f 1/2/2 8/10/9 5/3/3
f 7/11/10 8/10/12 21/17/18
f 10/12/13 12/14/15 13/19/132
f 9/13/14 14/16/17 12/14/15
f 9/13/14 21/17/18 11/15/16
f 16/18/19 12/14/21 15/20/22
f 15/20/22 14/16/23 18/25/23
f 15/21/24 22/23/26 16/97/133
f 17/22/25 18/24/27 19/98/134
f 18/25/28 11/15/29 19/27/31
f 20/26/30 17/22/25 19/98/134
f 19/27/31 21/17/32 20/28/34
f 4/9/33 21/17/32 8/10/135
f 3/8/8 22/23/26 17/22/25
f 22/23/26 52/30/36 16/97/136
f 24/6/6 23/29/35 22/23/26
f 2/5/38 25/31/37 24/6/6
f 25/31/40 39/34/42 23/29/88
f 25/31/40 28/35/44 26/33/41
f 27/36/45 6/37/46 29/38/45
f 27/36/47 30/39/48 28/40/49
f 28/40/49 31/41/50 34/42/51
f 34/42/51 32/43/52 35/69/59
f 31/41/53 53/45/55 32/43/137
f 26/33/56 34/46/58 36/49/61
f 34/46/51 37/48/60 36/49/64
f 26/33/56 38/50/62 39/34/65
f 38/50/63 37/48/60 40/52/67
f 39/34/65 41/51/66 42/65/138
f 38/50/63 43/53/68 41/51/139
f 42/54/69 44/56/71 45/60/140
f 41/55/70 46/58/72 44/56/71
f 48/59/73 44/56/75 47/61/141
f 47/61/76 46/58/78 49/68/142
f 53/45/55 47/61/76 49/68/142
f 10/12/79 51/62/81 50/63/143
f 50/63/82 45/60/84 48/59/144
f 52/64/85 13/19/20 16/18/19
f 52/64/85 45/60/87 51/62/86
f 23/29/88 42/65/89 52/30/145
f 40/66/90 53/45/92 49/68/94
f 43/57/93 49/68/94 46/58/93
f 35/69/95 53/45/92 37/67/91
f 57/70/96 55/72/98 54/73/99
f 57/70/96 56/74/100 59/75/101
f 57/70/96 60/76/102 58/71/97
f 60/76/102 61/77/103 62/96/128
f 61/77/103 56/74/100 63/78/104
f 61/77/103 64/79/105 62/96/128
f 58/71/106 65/81/108 55/72/146
f 69/82/109 65/81/111 67/80/113
f 58/71/106 68/84/112 67/80/107
f 69/82/109 68/84/114 70/86/117
f 71/85/115 70/86/117 72/88/120
f 71/85/115 66/83/119 69/82/116
f 71/85/115 74/89/121 73/87/118
f 78/90/122 75/92/124 77/93/125
f 77/93/125 74/89/121 72/88/120
f 70/86/117 77/93/125 72/88/120
f 68/84/114 78/90/122 70/86/117
f 78/90/122 80/95/127 76/91/147
f 60/76/102 79/94/129 68/84/112
f 62/96/128 80/95/131 79/94/129
