# Blender v2.82 (sub 7) OBJ File: 'Predator.blend'
# www.blender.org
mtllib Eye_Left.mtl
o Eyes_Cube.024
v 1.167120 38.100632 1.891062
v 1.198516 38.191578 1.859666
v 1.076173 38.069237 1.859666
v 1.198516 38.069237 1.982009
v 1.208000 38.059753 2.072956
v 1.261831 38.175880 1.966311
v 1.091871 38.005920 1.966311
v 1.096613 37.987823 2.072956
v 0.985226 37.987823 1.961569
v 0.985226 37.967476 2.072956
v 0.878581 38.005920 1.966311
v 0.985226 38.059753 1.850182
v 0.985226 38.171139 1.778253
v 0.894279 38.069237 1.859666
v 0.878581 38.175880 1.796351
v 0.803332 38.100632 1.891062
v 0.771936 38.191578 1.859666
v 0.771936 38.069237 1.982009
v 0.708621 38.175880 1.966311
v 0.762452 38.059753 2.072956
v 0.690524 38.171139 2.072956
v 0.771936 38.069237 2.163903
v 0.873839 37.987823 2.072956
v 0.878581 38.005920 2.179601
v 0.894279 38.069237 2.286246
v 0.985226 37.987823 2.184343
v 0.985226 38.059753 2.295730
v 1.091871 38.005920 2.179601
v 1.076173 38.069237 2.286246
v 1.198516 38.069237 2.163903
v 1.167120 38.100632 2.254850
v 1.261831 38.175880 2.179601
v 1.198516 38.191578 2.286246
v 1.279928 38.171139 2.072956
v 1.279928 38.282524 2.184343
v 1.208000 38.282524 2.295730
v 1.300276 38.282524 2.072956
v 1.261831 38.389172 2.179601
v 1.198516 38.373474 2.286246
v 1.279928 38.393913 2.072956
v 1.198516 38.495815 2.163903
v 1.167120 38.464420 2.254850
v 1.208000 38.505299 2.072956
v 1.091871 38.559132 2.179601
v 1.096613 38.577229 2.072956
v 0.985226 38.577229 2.184343
v 1.076173 38.495815 2.286246
v 1.091871 38.389172 2.349560
v 0.985226 38.505299 2.295730
v 0.985226 38.393913 2.367658
v 0.894279 38.495815 2.286246
v 0.878581 38.389172 2.349560
v 0.803332 38.464420 2.254850
v 0.878581 38.559132 2.179601
v 0.873839 38.577229 2.072956
v 0.771936 38.495815 2.163903
v 0.708621 38.389172 2.179601
v 0.762452 38.505299 2.072956
v 0.690524 38.393913 2.072956
v 0.771936 38.495815 1.982009
v 0.708621 38.389172 1.966311
v 0.803332 38.464420 1.891062
v 0.878581 38.559132 1.966311
v 0.894279 38.495815 1.859666
v 0.985226 38.577229 1.961569
v 0.985226 38.505299 1.850182
v 1.091871 38.559132 1.966311
v 0.985226 38.597576 2.072956
v 1.076173 38.495815 1.859666
v 1.198516 38.495815 1.982009
v 1.261831 38.389172 1.966311
v 1.167120 38.464420 1.891062
v 1.198516 38.373474 1.859666
v 1.208000 38.282524 1.850182
v 1.091871 38.389172 1.796351
v 1.096613 38.282524 1.778253
v 0.985226 38.393913 1.778253
v 0.985226 38.282524 1.757906
v 0.878581 38.389172 1.796351
v 0.873839 38.282524 1.778253
v 0.771936 38.373474 1.859666
v 0.762452 38.282524 1.850182
v 0.690524 38.282524 1.961569
v 0.670176 38.282524 2.072956
v 0.690524 38.282524 2.184343
v 0.708621 38.175880 2.179601
v 0.762452 38.282524 2.295730
v 0.771936 38.191578 2.286246
v 0.771936 38.373474 2.286246
v 0.873839 38.282524 2.367658
v 0.878581 38.175880 2.349560
v 0.985226 38.282524 2.388006
v 0.985226 38.171139 2.367658
v 1.096613 38.282524 2.367658
v 1.091871 38.175880 2.349560
v 0.803332 38.100632 2.254850
v 1.091871 38.175880 1.796351
v 1.279928 38.282524 1.961569
vt 0.953493 0.313421
vt 0.955676 0.310104
vt 0.956267 0.313890
vt 0.950238 0.312924
vt 0.952458 0.311168
vt 0.954406 0.317157
vt 0.957332 0.319157
vt 0.959333 0.314459
vt 0.959333 0.309169
vt 0.954346 0.322283
vt 0.952157 0.319333
vt 0.951789 0.315222
vt 0.949423 0.320857
vt 0.948328 0.317793
vt 0.950132 0.316607
vt 0.948423 0.314305
vt 0.946111 0.318903
vt 0.946576 0.315643
vt 0.942304 0.320033
vt 0.944253 0.317260
vt 0.945757 0.321693
vt 0.940351 0.323263
vt 0.950491 0.324236
vt 0.963233 0.772970
vt 0.968639 0.774539
vt 0.963575 0.776070
vt 0.958500 0.775513
vt 0.959567 0.772133
vt 0.954644 0.773559
vt 0.956834 0.770610
vt 0.962880 0.770179
vt 0.960663 0.769069
vt 0.958858 0.767883
vt 0.957201 0.766499
vt 0.954584 0.768434
vt 0.951658 0.770433
vt 0.955497 0.764698
vt 0.952724 0.765167
vt 0.949657 0.765736
vt 0.953314 0.761381
vt 0.956532 0.762444
vt 0.949657 0.760445
vt 0.954794 0.758455
vt 0.957698 0.760612
vt 0.951431 0.755958
vt 0.959115 0.758966
vt 0.957166 0.756193
vt 0.960972 0.757323
vt 0.955213 0.752963
vt 0.960619 0.754533
vt 0.964285 0.755369
vt 0.965353 0.751990
vt 0.960277 0.751433
vt 0.969208 0.753943
vt 0.967018 0.756893
vt 0.963190 0.758433
vt 0.961438 0.760583
vt 0.963285 0.761921
vt 0.964994 0.759619
vt 0.966651 0.761004
vt 0.965100 0.763302
vt 0.968355 0.762805
vt 0.967320 0.765058
vt 0.969268 0.759069
vt 0.972194 0.757069
vt 0.971129 0.762336
vt 0.970538 0.766122
vt 0.974195 0.767057
vt 0.974195 0.761766
vt 0.934795 0.315780
vt 0.937862 0.311059
vt 0.938452 0.314845
vt 0.936797 0.305793
vt 0.939723 0.307792
vt 0.940635 0.311528
vt 0.941670 0.313782
vt 0.942339 0.309727
vt 0.941972 0.305616
vt 0.943996 0.308342
vt 0.939782 0.302667
vt 0.945801 0.307157
vt 0.944705 0.304093
vt 0.943638 0.300713
vt 0.948018 0.306047
vt 0.948371 0.303256
vt 0.948713 0.300156
vt 0.951825 0.304916
vt 0.953777 0.301687
vt 0.947552 0.309306
vt 0.949875 0.307689
vt 0.954197 0.307179
vt 0.948925 0.311093
vt 0.951293 0.309335
vt 0.947064 0.312475
vt 0.945705 0.310644
vt 0.943890 0.312025
vt 0.945203 0.313857
vt 0.939932 0.317770
vt 0.942836 0.315614
vt 0.936569 0.320267
vt 0.966686 0.771309
vt 0.972421 0.771544
vt 0.964737 0.768536
vt 0.969058 0.769047
vt 0.963787 0.765133
vt 0.966155 0.766891
vt 0.962414 0.766920
vt 0.961926 0.763751
vt 0.958752 0.764200
vt 0.960567 0.765581
vt 0.960065 0.762369
vt 0.957560 0.304682
vt 0.945415 0.324793
vt 0.934795 0.310490
vn 0.5773 -0.5773 -0.5773
vn 0.8764 -0.3405 -0.3405
vn 0.6781 -0.6781 -0.2835
vn 0.3405 -0.3405 -0.8764
vn 0.6781 -0.2835 -0.6781
vn 0.3405 -0.8764 -0.3405
vn 0.3615 -0.9324 0.0000
vn 0.7071 -0.7071 0.0000
vn 0.9324 -0.3615 0.0000
vn 0.0000 -1.0000 0.0000
vn 0.0000 -0.9324 -0.3615
vn 0.2835 -0.6781 -0.6781
vn -0.3405 -0.8764 -0.3405
vn -0.2835 -0.6781 -0.6781
vn 0.0000 -0.7071 -0.7071
vn 0.0000 -0.3615 -0.9324
vn -0.5773 -0.5773 -0.5773
vn -0.3405 -0.3405 -0.8764
vn -0.8764 -0.3405 -0.3405
vn -0.6781 -0.2835 -0.6781
vn -0.6781 -0.6781 -0.2835
vn -0.9324 -0.3615 0.0000
vn -0.3615 -0.9324 0.0000
vn -0.6781 -0.6781 0.2835
vn -0.7071 -0.7071 0.0000
vn -0.3405 -0.8764 0.3405
vn 0.0000 -0.9324 0.3615
vn -0.5773 -0.5773 0.5773
vn -0.2835 -0.6781 0.6781
vn 0.0000 -0.7071 0.7071
vn 0.2835 -0.6781 0.6781
vn 0.3405 -0.8764 0.3405
vn 0.5773 -0.5773 0.5773
vn 0.6781 -0.6781 0.2835
vn 0.8764 -0.3405 0.3405
vn 0.6781 -0.2835 0.6781
vn 0.9324 0.0000 0.3615
vn 0.7071 0.0000 0.7071
vn 1.0000 0.0000 0.0000
vn 0.6781 0.2835 0.6781
vn 0.8764 0.3405 0.3405
vn 0.5773 0.5773 0.5773
vn 0.9324 0.3615 0.0000
vn 0.6781 0.6781 0.2835
vn 0.3405 0.8764 0.3405
vn 0.3615 0.9324 0.0000
vn 0.7071 0.7071 0.0000
vn 0.0000 1.0000 0.0000
vn 0.0000 0.9324 0.3615
vn 0.2835 0.6781 0.6781
vn 0.3405 0.3405 0.8764
vn 0.0000 0.3615 0.9324
vn 0.0000 0.7071 0.7071
vn -0.2835 0.6781 0.6781
vn -0.3405 0.3405 0.8764
vn -0.5773 0.5773 0.5773
vn -0.6781 0.2835 0.6781
vn -0.3405 0.8764 0.3405
vn -0.3615 0.9324 0.0000
vn -0.6781 0.6781 0.2835
vn -0.8764 0.3405 0.3405
vn -0.9324 0.3615 0.0000
vn -0.7071 0.7071 0.0000
vn -0.6781 0.6781 -0.2835
vn -0.8764 0.3405 -0.3405
vn -0.3405 0.8764 -0.3405
vn -0.5773 0.5773 -0.5773
vn -0.6781 0.2835 -0.6781
vn -0.2835 0.6781 -0.6781
vn 0.0000 0.9324 -0.3615
vn 0.0000 0.7071 -0.7071
vn 0.2835 0.6781 -0.6781
vn 0.3405 0.8764 -0.3405
vn 0.5773 0.5773 -0.5773
vn 0.6781 0.6781 -0.2835
vn 0.8764 0.3405 -0.3405
vn 0.3405 0.3405 -0.8764
vn 0.6781 0.2835 -0.6781
vn 0.9324 0.0000 -0.3615
vn 0.3615 0.0000 -0.9324
vn 0.7071 0.0000 -0.7071
vn 0.0000 0.0000 -1.0000
vn 0.0000 0.3615 -0.9324
vn -0.3405 0.3405 -0.8764
vn -0.3615 0.0000 -0.9324
vn -0.9324 0.0000 -0.3615
vn -0.7071 0.0000 -0.7071
vn -1.0000 0.0000 0.0000
vn -0.8764 -0.3405 0.3405
vn -0.6781 -0.2835 0.6781
vn -0.9324 0.0000 0.3615
vn -0.3615 0.0000 0.9324
vn -0.7071 0.0000 0.7071
vn -0.3405 -0.3405 0.8764
vn 0.0000 0.0000 1.0000
vn 0.3405 -0.3405 0.8764
vn 0.0000 -0.3615 0.9324
vn 0.3615 0.0000 0.9324
usemtl Predator_Body
s 1
f 1/1/1 6/2/2 4/3/3
f 1/1/1 97/4/4 2/5/5
f 7/6/6 1/1/1 4/3/3
f 8/7/7 4/3/3 5/8/8
f 4/3/3 34/9/9 5/8/8
f 10/10/10 7/6/6 8/7/7
f 9/11/11 3/12/12 7/6/6
f 10/10/10 11/13/13 9/11/11
f 9/11/11 14/14/14 12/15/15
f 3/12/12 13/16/16 97/4/4
f 14/14/14 13/16/16 12/15/15
f 16/17/17 15/18/18 14/14/14
f 11/13/13 16/17/17 14/14/14
f 16/17/17 19/19/19 17/20/20
f 18/21/21 21/22/22 19/19/19
f 23/23/23 18/21/21 11/13/13
f 22/24/24 21/25/22 20/26/25
f 22/24/24 23/27/23 24/28/26
f 24/28/26 10/29/10 26/30/27
f 96/31/28 24/28/26 25/32/29
f 25/32/29 26/30/27 27/33/30
f 29/34/31 26/30/27 28/35/32
f 28/35/32 10/29/10 8/36/7
f 31/37/33 28/35/32 30/38/34
f 30/38/34 8/36/7 5/39/8
f 31/37/33 32/40/35 33/41/36
f 30/38/34 34/42/9 32/40/35
f 33/41/36 35/43/37 36/44/38
f 32/40/35 37/45/39 35/43/37
f 35/43/37 39/46/40 36/44/38
f 37/45/39 38/47/41 35/43/37
f 38/47/41 42/48/42 39/46/40
f 40/49/43 41/50/44 38/47/41
f 44/51/45 42/48/42 41/50/44
f 45/52/46 41/50/44 43/53/47
f 68/54/48 44/51/45 45/52/46
f 46/55/49 47/56/50 44/51/45
f 48/57/51 42/48/42 47/56/50
f 50/58/52 47/56/50 49/59/53
f 50/58/52 51/60/54 52/61/55
f 46/55/49 51/60/54 49/59/53
f 52/61/55 53/62/56 89/63/57
f 54/64/58 53/62/56 51/60/54
f 55/65/59 56/66/60 54/64/58
f 68/54/48 54/64/58 46/55/49
f 57/67/61 53/62/56 56/66/60
f 59/68/62 56/66/60 58/69/63
f 59/70/62 60/71/64 61/72/65
f 60/71/64 55/73/59 63/74/66
f 61/72/65 62/75/67 81/76/68
f 62/75/67 63/74/66 64/77/69
f 64/77/69 65/78/70 66/79/71
f 63/74/66 68/80/48 65/78/70
f 69/81/72 65/78/70 67/82/73
f 67/82/73 68/80/48 45/83/46
f 72/84/74 67/82/73 70/85/75
f 70/85/75 45/83/46 43/86/47
f 71/87/76 72/84/74 70/85/75
f 40/88/43 70/85/75 43/86/47
f 75/89/77 72/84/74 73/90/78
f 98/91/79 73/90/78 71/87/76
f 76/92/80 73/90/78 74/93/81
f 78/94/82 75/89/77 76/92/80
f 77/95/83 69/81/72 75/89/77
f 78/94/82 79/96/84 77/95/83
f 77/95/83 64/77/69 66/79/71
f 80/97/85 81/76/68 79/96/84
f 79/96/84 62/75/67 64/77/69
f 83/98/86 81/76/68 82/99/87
f 17/20/20 83/98/86 82/99/87
f 17/20/20 80/97/85 15/18/18
f 19/19/19 84/100/88 83/98/86
f 84/100/88 61/72/65 83/98/86
f 86/101/89 84/102/88 21/25/22
f 84/102/88 57/67/61 59/68/62
f 88/103/90 85/104/91 86/101/89
f 85/104/91 89/63/57 57/67/61
f 88/103/90 90/105/92 87/106/93
f 90/105/92 89/63/57 87/106/93
f 91/107/94 92/108/95 90/105/92
f 92/108/95 52/61/55 90/105/92
f 95/109/96 92/108/95 93/110/97
f 92/108/95 48/57/51 50/58/52
f 33/41/36 94/111/98 95/109/96
f 94/111/98 39/46/40 48/57/51
f 31/37/33 95/109/96 29/34/31
f 29/34/31 93/110/97 27/33/30
f 25/32/29 93/110/97 91/107/94
f 96/31/28 91/107/94 88/103/90
f 96/31/28 86/101/89 22/24/24
f 15/18/18 78/94/82 13/16/16
f 97/4/4 78/94/82 76/92/80
f 2/5/5 76/92/80 74/93/81
f 2/5/5 98/91/79 6/2/2
f 6/2/2 37/112/39 34/9/9
f 37/112/39 71/87/76 40/88/43
f 1/1/1 2/5/5 6/2/2
f 1/1/1 3/12/12 97/4/4
f 7/6/6 3/12/12 1/1/1
f 8/7/7 7/6/6 4/3/3
f 4/3/3 6/2/2 34/9/9
f 10/10/10 9/11/11 7/6/6
f 9/11/11 12/15/15 3/12/12
f 10/10/10 23/23/23 11/13/13
f 9/11/11 11/13/13 14/14/14
f 3/12/12 12/15/15 13/16/16
f 14/14/14 15/18/18 13/16/16
f 16/17/17 17/20/20 15/18/18
f 11/13/13 18/21/21 16/17/17
f 16/17/17 18/21/21 19/19/19
f 18/21/21 20/113/25 21/22/22
f 23/23/23 20/113/25 18/21/21
f 22/24/24 86/101/89 21/25/22
f 22/24/24 20/26/25 23/27/23
f 24/28/26 23/27/23 10/29/10
f 96/31/28 22/24/24 24/28/26
f 25/32/29 24/28/26 26/30/27
f 29/34/31 27/33/30 26/30/27
f 28/35/32 26/30/27 10/29/10
f 31/37/33 29/34/31 28/35/32
f 30/38/34 28/35/32 8/36/7
f 31/37/33 30/38/34 32/40/35
f 30/38/34 5/39/8 34/42/9
f 33/41/36 32/40/35 35/43/37
f 32/40/35 34/42/9 37/45/39
f 35/43/37 38/47/41 39/46/40
f 37/45/39 40/49/43 38/47/41
f 38/47/41 41/50/44 42/48/42
f 40/49/43 43/53/47 41/50/44
f 44/51/45 47/56/50 42/48/42
f 45/52/46 44/51/45 41/50/44
f 68/54/48 46/55/49 44/51/45
f 46/55/49 49/59/53 47/56/50
f 48/57/51 39/46/40 42/48/42
f 50/58/52 48/57/51 47/56/50
f 50/58/52 49/59/53 51/60/54
f 46/55/49 54/64/58 51/60/54
f 52/61/55 51/60/54 53/62/56
f 54/64/58 56/66/60 53/62/56
f 55/65/59 58/69/63 56/66/60
f 68/54/48 55/65/59 54/64/58
f 57/67/61 89/63/57 53/62/56
f 59/68/62 57/67/61 56/66/60
f 59/70/62 58/114/63 60/71/64
f 60/71/64 58/114/63 55/73/59
f 61/72/65 60/71/64 62/75/67
f 62/75/67 60/71/64 63/74/66
f 64/77/69 63/74/66 65/78/70
f 63/74/66 55/73/59 68/80/48
f 69/81/72 66/79/71 65/78/70
f 67/82/73 65/78/70 68/80/48
f 72/84/74 69/81/72 67/82/73
f 70/85/75 67/82/73 45/83/46
f 71/87/76 73/90/78 72/84/74
f 40/88/43 71/87/76 70/85/75
f 75/89/77 69/81/72 72/84/74
f 98/91/79 74/93/81 73/90/78
f 76/92/80 75/89/77 73/90/78
f 78/94/82 77/95/83 75/89/77
f 77/95/83 66/79/71 69/81/72
f 78/94/82 80/97/85 79/96/84
f 77/95/83 79/96/84 64/77/69
f 80/97/85 82/99/87 81/76/68
f 79/96/84 81/76/68 62/75/67
f 83/98/86 61/72/65 81/76/68
f 17/20/20 19/19/19 83/98/86
f 17/20/20 82/99/87 80/97/85
f 19/19/19 21/22/22 84/100/88
f 84/100/88 59/70/62 61/72/65
f 86/101/89 85/104/91 84/102/88
f 84/102/88 85/104/91 57/67/61
f 88/103/90 87/106/93 85/104/91
f 85/104/91 87/106/93 89/63/57
f 88/103/90 91/107/94 90/105/92
f 90/105/92 52/61/55 89/63/57
f 91/107/94 93/110/97 92/108/95
f 92/108/95 50/58/52 52/61/55
f 95/109/96 94/111/98 92/108/95
f 92/108/95 94/111/98 48/57/51
f 33/41/36 36/44/38 94/111/98
f 94/111/98 36/44/38 39/46/40
f 31/37/33 33/41/36 95/109/96
f 29/34/31 95/109/96 93/110/97
f 25/32/29 27/33/30 93/110/97
f 96/31/28 25/32/29 91/107/94
f 96/31/28 88/103/90 86/101/89
f 15/18/18 80/97/85 78/94/82
f 97/4/4 13/16/16 78/94/82
f 2/5/5 97/4/4 76/92/80
f 2/5/5 74/93/81 98/91/79
f 6/2/2 98/91/79 37/112/39
f 37/112/39 98/91/79 71/87/76
