# Blender v2.82 (sub 7) OBJ File: 'BioHelmet.blend'
# www.blender.org
mtllib Leave4.mtl
o BioHelmet.001_Cube.001
v 0.369161 38.153782 3.470866
v 0.784276 38.517109 3.532106
v 1.285083 38.701241 3.415026
v 1.832468 38.780659 3.062399
v 2.284255 38.825180 2.464483
v 0.750709 37.853138 3.259712
v 1.271683 37.894882 2.923966
v 1.847630 38.230125 2.652570
v -0.396831 38.153782 3.470866
v -0.811946 38.517109 3.532106
v -1.312753 38.701241 3.415026
v -1.860138 38.780659 3.062399
v -2.311925 38.825180 2.464483
v -0.778379 37.853138 3.259712
v -1.299353 37.894882 2.923966
v -1.875300 38.230125 2.652570
vt 0.767722 0.173469
vt 0.747079 0.162191
vt 0.768233 0.135272
vt 0.768233 0.135272
vt 0.748222 0.123769
vt 0.732887 0.147365
vt 0.732887 0.147365
vt 0.726627 0.125469
vt 0.748222 0.123769
vt 0.785306 0.155247
vt 0.794250 0.182841
vt 0.726627 0.125469
vt 0.747079 0.162191
vt 0.767722 0.173469
vt 0.794250 0.182841
vt 0.785306 0.155247
vn 0.6334 -0.4326 0.6416
vn 0.4497 -0.4700 0.7595
vn 0.5122 -0.4355 0.7403
vn -0.5122 -0.4355 0.7403
vn -0.4213 -0.3624 0.8314
vn -0.3589 -0.4245 0.8313
vn 0.3589 -0.4245 0.8313
vn 0.1998 -0.3805 0.9029
vn 0.4213 -0.3624 0.8314
vn 0.6540 -0.4401 0.6153
vn 0.7512 -0.3807 0.5392
vn -0.1998 -0.3805 0.9029
vn -0.4497 -0.4700 0.7595
vn -0.6334 -0.4326 0.6416
vn -0.7512 -0.3807 0.5392
vn -0.6540 -0.4401 0.6153
usemtl Predator_Armor_01
s 1
f 4/1/1 3/2/2 7/3/3
f 15/4/4 14/5/5 10/6/6
f 2/7/7 1/8/8 6/9/9
f 6/9/9 7/3/3 2/7/7
f 7/3/3 8/10/10 4/1/1
f 2/7/7 7/3/3 3/2/2
f 8/10/10 5/11/11 4/1/1
f 14/5/5 9/12/12 10/6/6
f 10/6/6 11/13/13 15/4/4
f 11/13/13 12/14/14 15/4/4
f 12/14/14 13/15/15 16/16/16
f 16/16/16 15/4/4 12/14/14
