# Blender v2.82 (sub 7) OBJ File: 'Predator.blend'
# www.blender.org
mtllib Leg_Lower_Left.mtl
o Leg_Lower_Cube.035
v 3.452405 9.210455 -1.322649
v 4.111147 9.402340 -0.823054
v 3.074124 8.440308 -1.597802
v 3.627515 8.427830 -1.688269
v 4.218081 8.517811 -1.231820
v 3.747653 5.866602 -2.009521
v 3.048511 6.712112 -1.926354
v 4.397155 6.597506 -1.425147
v 3.715022 4.912548 -1.865246
v 3.157283 4.749725 -1.944597
v 4.230937 4.941013 -1.300505
v 3.693378 4.148621 -1.521227
v 3.425817 2.289791 -1.103495
v 4.133354 3.883686 -1.054420
v 3.219133 3.360390 -1.519013
v 2.950242 3.352566 -1.602664
v 3.053074 2.289791 -1.169568
v 2.709854 2.289791 -0.965909
v 2.750976 3.268608 -1.565376
v 3.045036 1.261177 -1.075879
v 3.489836 1.349922 -1.055120
v 2.622013 1.419155 -0.857242
v 3.015595 -0.030209 -1.311703
v 3.623686 0.247292 -1.157613
v 2.537045 0.215740 -0.925056
v 2.406190 0.730503 -0.451905
v 2.488042 1.084351 -0.041878
v 2.399164 1.608955 -0.533395
v 2.507593 1.680180 -0.078092
v 2.514457 2.289791 -0.484960
v 2.569061 2.289791 0.078992
v 2.041039 3.546661 -0.615544
v 2.331832 3.609200 0.088213
v 2.091988 3.976898 -1.400769
v 1.585005 4.991230 -0.673910
v 1.935899 4.932468 0.075913
v 1.807266 4.958755 -1.558034
v 1.396445 6.421156 -0.665706
v 1.499569 8.224003 -0.579999
v 1.791745 6.182266 0.040998
v 1.704667 5.905167 -1.542659
v 2.366692 6.775507 -1.623304
v 1.675638 8.399849 -1.160900
v 2.236690 8.364470 -1.318927
v 1.777783 9.180965 -0.984502
v 1.514449 9.127312 -0.471413
v 1.641826 9.242371 0.108607
v 2.002781 9.595108 0.441253
v 1.719552 8.325205 0.120279
v 2.186299 7.964737 0.508280
v 2.324103 5.986547 0.513602
v 2.437774 7.769583 0.936072
v 2.339045 8.858139 0.733271
v 2.527435 5.985952 1.011139
v 2.881886 7.613169 1.248879
v 2.815876 8.617414 0.955025
v 2.997949 6.022278 1.248879
v 3.448302 7.722281 1.190882
v 3.331974 8.953693 0.829436
v 3.498207 6.035170 1.190882
v 3.750289 7.880404 0.835610
v 3.570033 9.607485 0.854129
v 3.790050 6.089214 0.774023
v 4.193584 8.538464 0.546710
v 4.072519 9.649204 0.546710
v 4.296238 6.127260 0.546710
v 4.359127 8.787155 -0.428597
v 4.326705 9.679039 0.149574
v 4.737381 6.457911 -0.458751
v 4.671394 5.190088 -0.403565
v 4.245847 5.106417 0.492830
v 4.395411 3.679165 -0.134153
v 3.942632 2.289791 0.021173
v 4.042251 3.696175 0.448362
v 3.838655 2.289791 0.403894
v 3.670907 3.629944 0.644199
v 3.573359 2.289791 0.620298
v 3.460369 3.568996 0.977914
v 3.774982 5.014324 0.688633
v 3.508528 4.972698 1.074208
v 3.052899 4.939285 1.126552
v 2.689832 4.906502 0.911987
v 3.131842 3.504040 1.025591
v 2.809436 3.560024 0.830153
v 3.186530 2.298759 0.922502
v 2.907825 2.289791 0.748319
v 3.415803 2.311504 0.861247
v 3.227053 1.845222 0.787924
v 3.050746 1.817089 0.549431
v 3.456477 1.813004 0.731073
v 3.238049 1.322933 0.767747
v 2.970314 1.262112 0.600861
v 3.508381 1.236649 0.689205
v 3.707544 1.110165 0.509851
v 3.918333 1.014778 0.277366
v 3.609115 1.733261 0.464911
v 3.898806 1.590309 0.233670
v 4.075718 1.585484 -0.133508
v 3.941709 1.519485 -0.652345
v 4.186097 0.938412 -0.247713
v 4.097389 0.765244 -0.752360
v 3.915649 2.289791 -0.726039
v 2.782788 1.163158 0.299706
v 2.837301 1.778683 0.320609
v 2.823787 2.289791 0.347816
v 2.660124 3.583397 0.400807
v 2.473588 4.923038 0.458426
v 2.638708 8.164515 -1.539155
v 2.691772 6.849527 -1.674993
v 2.802610 4.814388 -1.934065
v 2.537251 4.770008 -1.875325
vt 0.276888 0.472737
vt 0.252186 0.487967
vt 0.252337 0.467936
vt 0.257577 0.453105
vt 0.210914 0.445799
vt 0.204297 0.481512
vt 0.188549 0.459881
vt 0.162434 0.445476
vt 0.166163 0.459091
vt 0.164434 0.477545
vt 0.145239 0.461366
vt 0.123215 0.448001
vt 0.135941 0.477880
vt 0.087501 0.455583
vt 0.088364 0.441475
vt 0.124114 0.440130
vt 0.164253 0.437194
vt 0.121808 0.434487
vt 0.052957 0.455379
vt 0.050821 0.438902
vt 0.087768 0.426931
vt 0.141586 0.415387
vt 0.057635 0.422559
vt 0.013740 0.456466
vt 0.004403 0.434582
vt 0.016850 0.415521
vt 0.037321 0.403243
vt 0.064851 0.410371
vt 0.040505 0.584509
vt 0.030548 0.565045
vt 0.047497 0.571825
vt 0.060758 0.589935
vt 0.067079 0.573723
vt 0.085351 0.410717
vt 0.104510 0.589861
vt 0.122831 0.397945
vt 0.141201 0.606662
vt 0.095827 0.611137
vt 0.166325 0.386315
vt 0.175623 0.616658
vt 0.136982 0.630533
vt 0.192323 0.409423
vt 0.207899 0.385127
vt 0.236968 0.623558
vt 0.178629 0.640979
vt 0.260334 0.408629
vt 0.258367 0.390989
vt 0.163182 0.430918
vt 0.214540 0.427371
vt 0.284376 0.392950
vt 0.283237 0.409582
vt 0.259075 0.425385
vt 0.258498 0.644456
vt 0.263941 0.627278
vt 0.275363 0.613197
vt 0.227919 0.605170
vt 0.173243 0.596166
vt 0.254582 0.598307
vt 0.223415 0.590952
vt 0.176218 0.582203
vt 0.248633 0.581626
vt 0.219915 0.576427
vt 0.179317 0.569057
vt 0.224253 0.562135
vt 0.259840 0.566317
vt 0.181344 0.556654
vt 0.230723 0.550797
vt 0.279406 0.560255
vt 0.184188 0.544290
vt 0.250072 0.537597
vt 0.282215 0.542728
vt 0.187080 0.530963
vt 0.284376 0.528509
vt 0.258802 0.510416
vt 0.198218 0.505094
vt 0.277781 0.497975
vt 0.167830 0.502613
vt 0.161582 0.526944
vt 0.127161 0.503578
vt 0.085755 0.477555
vt 0.123610 0.522323
vt 0.082854 0.503003
vt 0.119233 0.533439
vt 0.081639 0.516260
vt 0.156747 0.539359
vt 0.115809 0.544203
vt 0.080117 0.527179
vt 0.154068 0.551484
vt 0.151055 0.563505
vt 0.110751 0.563856
vt 0.112027 0.553004
vt 0.075850 0.551900
vt 0.078604 0.542881
vt 0.080010 0.536084
vt 0.064264 0.539716
vt 0.064529 0.531610
vt 0.060239 0.548729
vt 0.048435 0.535716
vt 0.047260 0.527306
vt 0.062949 0.521572
vt 0.044116 0.519473
vt 0.059151 0.509558
vt 0.041445 0.510544
vt 0.058992 0.496086
vt 0.038047 0.492973
vt 0.057668 0.477594
vt 0.031331 0.477472
vt 0.055779 0.557714
vt 0.043575 0.543910
vt 0.037418 0.553062
vt 0.070708 0.562873
vt 0.107140 0.576611
vt 0.147706 0.574631
vt 0.144362 0.588246
vt 0.252040 0.438614
vt 0.215901 0.435683
vt 0.168349 0.411144
vt 0.016294 0.573421
vt 0.231487 0.644597
vn 0.3370 0.4407 -0.8320
vn 0.7801 0.2615 -0.5683
vn 0.2388 0.2946 -0.9253
vn -0.1755 0.2542 -0.9511
vn -0.2697 0.0960 -0.9581
vn 0.8131 0.0438 -0.5804
vn 0.3577 -0.0270 -0.9334
vn 0.0880 -0.1877 -0.9783
vn 0.4798 -0.2462 -0.8421
vn 0.8152 -0.1797 -0.5506
vn 0.5316 -0.2756 -0.8009
vn 0.3196 -0.3017 -0.8982
vn 0.8033 -0.2298 -0.5494
vn 0.4136 -0.1655 -0.8952
vn -0.1509 -0.2462 -0.9574
vn 0.1323 -0.4884 -0.8625
vn -0.1440 -0.0714 -0.9870
vn -0.2733 -0.3760 -0.8854
vn 0.3565 0.0595 -0.9324
vn -0.2168 0.0313 -0.9757
vn -0.7297 -0.2136 -0.6495
vn -0.7513 -0.3254 -0.5742
vn -0.6930 -0.0057 -0.7209
vn 0.2779 0.1562 -0.9478
vn -0.2181 0.1801 -0.9591
vn -0.6747 0.1327 -0.7260
vn -0.9717 0.0427 -0.2324
vn -0.9812 0.0547 -0.1848
vn -0.9223 0.0390 0.3844
vn -0.9124 0.0481 0.4064
vn -0.9922 -0.0802 -0.0958
vn -0.8936 -0.0852 0.4406
vn -0.8042 -0.2017 0.5591
vn -0.9400 -0.3361 0.0588
vn -0.7741 -0.1634 0.6115
vn -0.9759 -0.2003 0.0869
vn -0.7952 -0.0694 0.6024
vn -0.7061 0.0109 -0.7080
vn -0.9972 -0.0404 0.0635
vn -0.8315 -0.0323 0.5546
vn -0.6872 0.1621 -0.7081
vn -0.9992 0.0392 0.0064
vn -0.3064 -0.1091 -0.9456
vn -0.2446 0.1210 -0.9620
vn -0.9989 0.0377 -0.0266
vn -0.7539 0.2369 -0.6128
vn -0.3013 0.1766 -0.9370
vn -0.8175 -0.0620 0.5725
vn -0.6736 -0.0469 0.7376
vn -0.7652 -0.0332 0.6429
vn -0.8082 -0.0799 0.5835
vn -0.6608 0.0070 0.7505
vn -0.7130 0.0504 0.6993
vn -0.7326 -0.0907 0.6746
vn -0.1850 0.2271 0.9561
vn -0.2400 0.1107 0.9644
vn -0.1676 -0.0647 0.9837
vn 0.4315 0.1390 0.8913
vn 0.0465 0.0981 0.9941
vn 0.5087 -0.0371 0.8601
vn 0.5930 0.0805 0.8011
vn 0.3953 0.0378 0.9178
vn 0.6348 -0.0335 0.7719
vn 0.7954 0.0562 0.6034
vn 0.6933 0.0756 0.7167
vn 0.7146 -0.0272 0.6989
vn 0.9737 0.0772 0.2142
vn 0.9875 0.1408 -0.0709
vn 0.9993 0.0269 0.0237
vn 0.8292 0.3052 -0.4681
vn 0.9932 -0.1159 0.0046
vn 0.6964 -0.0884 0.7121
vn 0.9693 -0.2089 0.1294
vn 0.8593 -0.1311 -0.4943
vn 0.6865 -0.1310 0.7152
vn 0.9831 -0.0681 0.1698
vn 0.6889 -0.0769 0.7208
vn 0.8100 -0.1016 0.5775
vn 0.6329 -0.0767 0.7704
vn 0.5498 -0.0806 0.8314
vn 0.7504 -0.0959 0.6539
vn 0.5262 -0.0852 0.8461
vn -0.1951 -0.1100 0.9746
vn -0.7806 -0.1094 0.6153
vn -0.1925 -0.0914 0.9770
vn -0.8016 -0.2319 0.5510
vn -0.1391 -0.1888 0.9721
vn 0.5598 -0.1314 0.8181
vn -0.2872 -0.2287 0.9301
vn 0.6000 -0.0840 0.7955
vn -0.7771 -0.1080 0.6200
vn -0.1949 0.0284 0.9804
vn 0.6141 0.0721 0.7859
vn 0.7367 -0.0182 0.6759
vn 0.7212 0.1246 0.6814
vn 0.8152 0.0516 0.5769
vn 0.8394 0.0728 0.5386
vn 0.9861 0.1143 0.1205
vn 0.9843 0.1760 0.0079
vn 0.8396 0.1109 -0.5317
vn 0.7373 0.2020 -0.6446
vn -0.7604 0.0120 0.6493
vn -0.7226 0.1200 0.6807
vn -0.8058 0.0575 0.5894
vn -0.8511 -0.1403 0.5058
vn -0.8353 -0.1276 0.5348
vn -0.7307 -0.1458 0.6670
vn -0.7659 -0.1525 0.6246
vn -0.3426 0.1516 -0.9272
vn -0.3747 0.0873 -0.9230
vn -0.7575 -0.1787 -0.6279
usemtl Predator_Body
s 1
f 1/1/1 5/2/2 4/3/3
f 1/1/1 4/3/3 3/4/4
f 4/3/3 7/5/5 3/4/4
f 4/3/3 8/6/6 6/7/7
f 10/8/8 6/7/7 9/9/9
f 6/7/7 11/10/10 9/9/9
f 10/8/8 12/11/11 15/12/12
f 11/10/10 12/11/11 9/9/9
f 14/13/13 13/14/14 12/11/11
f 15/12/12 13/14/14 17/15/15
f 10/8/8 16/16/16 110/17/17
f 15/12/12 19/18/18 16/16/16
f 17/15/15 21/19/19 20/20/20
f 19/18/18 18/21/21 34/22/22
f 17/15/15 22/23/23 18/21/21
f 20/20/20 24/24/24 23/25/25
f 20/20/20 25/26/26 22/23/23
f 22/23/23 26/27/27 28/28/28
f 28/29/28 27/30/29 29/31/30
f 30/32/31 29/31/30 31/33/32
f 18/21/21 28/28/28 30/34/31
f 33/35/33 30/32/31 31/33/32
f 32/36/34 18/21/21 30/34/31
f 36/37/35 32/38/34 33/35/33
f 35/39/36 34/22/22 32/36/34
f 40/40/37 35/41/36 36/37/35
f 41/42/38 35/39/36 38/43/39
f 49/44/40 38/45/39 40/40/37
f 43/46/41 38/43/39 39/47/42
f 111/48/43 41/42/38 42/49/44
f 43/46/41 42/49/44 41/42/38
f 46/50/45 43/46/41 39/47/42
f 43/46/41 45/51/46 44/52/47
f 46/53/45 49/44/40 47/54/48
f 48/55/49 49/44/40 50/56/50
f 50/56/50 40/40/37 51/57/51
f 53/58/52 50/56/50 52/59/53
f 52/59/53 51/57/51 54/60/54
f 56/61/55 52/59/53 55/62/56
f 55/62/56 54/60/54 57/63/57
f 56/61/55 58/64/58 59/65/59
f 55/62/56 60/66/60 58/64/58
f 59/65/59 61/67/61 62/68/62
f 58/64/58 63/69/63 61/67/61
f 62/68/62 64/70/64 65/71/65
f 61/67/61 66/72/66 64/70/64
f 68/73/67 64/70/64 67/74/68
f 64/70/64 69/75/69 67/74/68
f 2/76/70 67/74/68 5/2/2
f 5/2/2 69/75/69 8/6/6
f 8/6/6 70/77/71 11/10/10
f 66/72/66 70/77/71 69/75/69
f 70/77/71 14/13/13 11/10/10
f 71/78/72 72/79/73 70/77/71
f 72/79/73 102/80/74 14/13/13
f 74/81/75 73/82/76 72/79/73
f 76/83/77 75/84/78 74/81/75
f 79/85/79 74/81/75 71/78/72
f 78/86/80 77/87/81 76/83/77
f 80/88/82 76/83/77 79/85/79
f 63/69/63 71/78/72 66/72/66
f 60/66/60 79/85/79 63/69/63
f 57/63/57 80/88/82 60/66/60
f 81/89/83 78/86/80 80/88/82
f 54/60/54 81/89/83 57/63/57
f 81/89/83 84/90/84 83/91/85
f 83/91/85 86/92/86 85/93/87
f 83/91/85 87/94/88 78/86/80
f 86/92/86 88/95/89 85/93/87
f 87/94/88 88/95/89 90/96/90
f 89/97/91 91/98/92 88/95/89
f 90/96/90 91/98/92 93/99/93
f 96/100/94 93/99/93 94/101/95
f 97/102/96 94/101/95 95/103/97
f 75/84/78 96/100/94 97/102/96
f 77/87/81 90/96/90 96/100/94
f 73/82/76 97/102/96 98/104/98
f 98/104/98 95/103/97 100/105/99
f 102/80/74 98/104/98 99/106/100
f 99/106/100 100/105/99 101/107/101
f 21/19/19 101/107/101 24/24/24
f 13/14/14 99/106/100 21/19/19
f 104/108/102 92/109/103 89/97/91
f 29/31/30 103/110/104 104/108/102
f 105/111/105 89/97/91 86/92/86
f 31/33/32 104/108/102 105/111/105
f 84/90/84 105/111/105 86/92/86
f 106/112/106 31/33/32 105/111/105
f 82/113/107 106/112/106 84/90/84
f 107/114/108 33/35/33 106/112/106
f 54/60/54 107/114/108 82/113/107
f 51/57/51 36/37/35 107/114/108
f 108/115/109 42/49/44 44/52/47
f 108/115/109 7/5/5 109/116/110
f 110/17/17 7/5/5 10/8/8
f 42/49/44 110/17/17 111/48/43
f 111/48/43 16/16/16 19/18/18
f 111/48/43 34/22/22 37/117/111
f 1/1/1 2/76/70 5/2/2
f 4/3/3 6/7/7 7/5/5
f 4/3/3 5/2/2 8/6/6
f 10/8/8 7/5/5 6/7/7
f 6/7/7 8/6/6 11/10/10
f 10/8/8 9/9/9 12/11/11
f 11/10/10 14/13/13 12/11/11
f 14/13/13 102/80/74 13/14/14
f 15/12/12 12/11/11 13/14/14
f 10/8/8 15/12/12 16/16/16
f 15/12/12 17/15/15 19/18/18
f 17/15/15 13/14/14 21/19/19
f 19/18/18 17/15/15 18/21/21
f 17/15/15 20/20/20 22/23/23
f 20/20/20 21/19/19 24/24/24
f 20/20/20 23/25/25 25/26/26
f 22/23/23 25/26/26 26/27/27
f 28/29/28 26/118/27 27/30/29
f 30/32/31 28/29/28 29/31/30
f 18/21/21 22/23/23 28/28/28
f 33/35/33 32/38/34 30/32/31
f 32/36/34 34/22/22 18/21/21
f 36/37/35 35/41/36 32/38/34
f 35/39/36 37/117/111 34/22/22
f 40/40/37 38/45/39 35/41/36
f 41/42/38 37/117/111 35/39/36
f 49/44/40 39/119/42 38/45/39
f 43/46/41 41/42/38 38/43/39
f 111/48/43 37/117/111 41/42/38
f 43/46/41 44/52/47 42/49/44
f 46/50/45 45/51/46 43/46/41
f 46/53/45 39/119/42 49/44/40
f 48/55/49 47/54/48 49/44/40
f 50/56/50 49/44/40 40/40/37
f 53/58/52 48/55/49 50/56/50
f 52/59/53 50/56/50 51/57/51
f 56/61/55 53/58/52 52/59/53
f 55/62/56 52/59/53 54/60/54
f 56/61/55 55/62/56 58/64/58
f 55/62/56 57/63/57 60/66/60
f 59/65/59 58/64/58 61/67/61
f 58/64/58 60/66/60 63/69/63
f 62/68/62 61/67/61 64/70/64
f 61/67/61 63/69/63 66/72/66
f 68/73/67 65/71/65 64/70/64
f 64/70/64 66/72/66 69/75/69
f 2/76/70 68/73/67 67/74/68
f 5/2/2 67/74/68 69/75/69
f 8/6/6 69/75/69 70/77/71
f 66/72/66 71/78/72 70/77/71
f 70/77/71 72/79/73 14/13/13
f 71/78/72 74/81/75 72/79/73
f 72/79/73 73/82/76 102/80/74
f 74/81/75 75/84/78 73/82/76
f 76/83/77 77/87/81 75/84/78
f 79/85/79 76/83/77 74/81/75
f 78/86/80 87/94/88 77/87/81
f 80/88/82 78/86/80 76/83/77
f 63/69/63 79/85/79 71/78/72
f 60/66/60 80/88/82 79/85/79
f 57/63/57 81/89/83 80/88/82
f 81/89/83 83/91/85 78/86/80
f 54/60/54 82/113/107 81/89/83
f 81/89/83 82/113/107 84/90/84
f 83/91/85 84/90/84 86/92/86
f 83/91/85 85/93/87 87/94/88
f 86/92/86 89/97/91 88/95/89
f 87/94/88 85/93/87 88/95/89
f 89/97/91 92/109/103 91/98/92
f 90/96/90 88/95/89 91/98/92
f 96/100/94 90/96/90 93/99/93
f 97/102/96 96/100/94 94/101/95
f 75/84/78 77/87/81 96/100/94
f 77/87/81 87/94/88 90/96/90
f 73/82/76 75/84/78 97/102/96
f 98/104/98 97/102/96 95/103/97
f 102/80/74 73/82/76 98/104/98
f 99/106/100 98/104/98 100/105/99
f 21/19/19 99/106/100 101/107/101
f 13/14/14 102/80/74 99/106/100
f 104/108/102 103/110/104 92/109/103
f 29/31/30 27/30/29 103/110/104
f 105/111/105 104/108/102 89/97/91
f 31/33/32 29/31/30 104/108/102
f 84/90/84 106/112/106 105/111/105
f 106/112/106 33/35/33 31/33/32
f 82/113/107 107/114/108 106/112/106
f 107/114/108 36/37/35 33/35/33
f 54/60/54 51/57/51 107/114/108
f 51/57/51 40/40/37 36/37/35
f 108/115/109 109/116/110 42/49/44
f 108/115/109 3/4/4 7/5/5
f 110/17/17 109/116/110 7/5/5
f 42/49/44 109/116/110 110/17/17
f 111/48/43 110/17/17 16/16/16
f 111/48/43 19/18/18 34/22/22
